# xmcd
#
# Track frame offsets: 
#        150
#        17366
#        32186
#        49729
#        65009
#        81581
#        97696
#        113666
#        132014
#        151662
#        167844
#        188512
#        205798
#        224115
#        245860
#        268266
#
# Disc length: 3798 seconds
#
# Revision: 0
# Processed by: cddbd v1.5.2PL0 Copyright (c) Steve Scherf et al.
# Submitted via: ExactAudioCopyFreeDBPlugin 1.0
#
DISCID=dd0ed410
DTITLE=Billie - The Singles Collection [CD1)
DYEAR=2012
DGENRE=Pop
TTITLE0=Because We Want To [Radio Mix]
TTITLE1=Day and Night [StarGate Mix]
TTITLE2=Girlfriend [Cutfather and Joe Radio Mix]
TTITLE3=Something Deep Inside [Radio Mix]
TTITLE4=First Love
TTITLE5=Safe with Me
TTITLE6=Promises
TTITLE7=Misfocusing
TTITLE8=G.H.E.T.T.O.U.T.
TTITLE9=What Game Is This
TTITLE10=Whatcha Gonna Do
TTITLE11=Walk of Line [Radio Mix]
TTITLE12=Run That By Me
TTITLE13=Don't Forget To Remember
TTITLE14=Caress The Gold
TTITLE15=She Wants You
EXTD=
EXTT0=
EXTT1=
EXTT2=
EXTT3=
EXTT4=
EXTT5=
EXTT6=
EXTT7=
EXTT8=
EXTT9=
EXTT10=
EXTT11=
EXTT12=
EXTT13=
EXTT14=
EXTT15=
PLAYORDER=
